<svg width="20" height="20" viewBox="0 0 20 20" fill="none" xmlns="http://www.w3.org/2000/svg">
<g clip-path="url(#clip0_3506_10026)">
<path d="M19.0919 2.12047C19.4824 1.72994 19.4824 1.09678 19.0919 0.706252C18.7013 0.315728 18.0682 0.315728 17.6777 0.706252L0.707096 17.6768C0.316572 18.0673 0.316572 18.7005 0.707096 19.091C1.09762 19.4816 1.73079 19.4816 2.12131 19.091L19.0919 2.12047Z" fill="#999999"/>
<path d="M2.12034 0.707688C1.72982 0.317164 1.09665 0.317164 0.70613 0.707688C0.315606 1.09821 0.315606 1.73138 0.70613 2.1219L17.6767 19.0925C18.0672 19.483 18.7004 19.483 19.0909 19.0925C19.4814 18.7019 19.4814 18.0688 19.0909 17.6783L2.12034 0.707688Z" fill="#999999"/>
</g>
<defs>
<clipPath id="clip0_3506_10026">
<rect width="20" height="20" fill="white"/>
</clipPath>
</defs>
</svg>
